<?xml version="1.0" encoding="utf-8"?>
<!-- Generator: Adobe Illustrator 27.5.0, SVG Export Plug-In . SVG Version: 6.00 Build 0)  -->
<svg version="1.1" xmlns="http://www.w3.org/2000/svg" xmlns:xlink="http://www.w3.org/1999/xlink" x="0px" y="0px"
	 viewBox="0 0 649.664 500" style="enable-background:new 0 0 649.664 500;" xml:space="preserve">
<g id="BACKGROUND">
	<rect style="fill:#FFFFFF;" width="649.664" height="500"/>
</g>
<g id="OBJECTS">
	<path style="fill:#F0E8E4;" d="M597.224,249.995c-1.386,154.509-121.937,230-272.346,230.882
		c-200.275,1.175-275.627-103.4-272.346-230.882C56.69,88.436,174.465,19.113,324.878,19.113
		C507.135,19.113,598.368,122.486,597.224,249.995z"/>
	<g>
		<g>
			<polygon style="fill:#6BA7B3;" points="142.569,51.998 135.623,57.507 112.869,58.226 126.741,51.998 			"/>
		</g>
		<g>
			<polygon style="fill:#6BA7B3;" points="142.569,51.983 135.623,46.475 112.869,45.756 126.741,51.983 			"/>
		</g>
		
			<line style="fill:none;stroke:#2D2D2D;stroke-linecap:round;stroke-miterlimit:10;" x1="126.741" y1="51.983" x2="246.517" y2="51.983"/>
		<polygon style="fill:#FF7575;" points="238.565,44.798 253.463,52.702 238.565,60.606 		"/>
		<polygon style="fill:#6BA7B3;" points="142.569,51.983 135.623,46.475 112.869,45.756 126.741,51.983 		"/>
	</g>
	<g>
		<g>
			<polygon style="fill:#6BA7B3;" points="208.737,28.075 200.508,31.373 178.495,25.57 193.568,23.559 			"/>
		</g>
		<g>
			<polygon style="fill:#6BA7B3;" points="208.742,28.061 203.656,20.799 182.053,13.619 193.572,23.545 			"/>
		</g>
		
			<line style="fill:none;stroke:#2D2D2D;stroke-linecap:round;stroke-miterlimit:10;" x1="193.572" y1="23.545" x2="308.369" y2="57.718"/>
		<polygon style="fill:#E3A81E;" points="302.798,48.562 314.822,60.388 298.288,63.713 		"/>
		<polygon style="fill:#6BA7B3;" points="208.742,28.061 203.656,20.799 182.053,13.619 193.572,23.545 		"/>
	</g>
	<g>
		<g>
			<g>
				<path style="fill:#222221;" d="M508.172,287.341H279.277c-4.465,0-6.026-2.019-3.485-4.51l88.121-80.388l232.324-3.172l0,0
					c0.55,2.02,0.13,3.946-1.156,5.301l-74.224,78.259C518.317,285.321,512.637,287.341,508.172,287.341z"/>
				<path style="fill:#D1D1D1;" d="M507.309,284.168H278.414c-4.465,0-6.026-2.019-3.485-4.51l88.121-80.388h233.187l-76.243,80.388
					C517.454,282.148,511.774,284.168,507.309,284.168z"/>
				<path style="opacity:0.5;fill:#9FA6A5;" d="M520.917,256.35H322.244c-3.144,0-4.243-1.422-2.454-3.176l42.262-41.433
					c1.789-1.754,5.788-3.175,8.932-3.175h198.672c3.144,0,4.243,1.422,2.454,3.175l-42.262,41.433
					C528.06,254.929,524.061,256.35,520.917,256.35z"/>
				<g>
					<g>
						<path d="M380.779,212.064h-10.356c-0.986,0-1.331-0.446-0.77-0.996l5.213-5.11c0.561-0.55,1.815-0.996,2.801-0.996h10.356
							c0.986,0,1.331,0.446,0.77,0.996l-5.212,5.11C383.019,211.618,381.765,212.064,380.779,212.064z"/>
						<path d="M395.325,212.064h-9.161c-0.986,0-1.331-0.446-0.77-0.996l5.213-5.11c0.561-0.55,1.815-0.996,2.801-0.996h9.161
							c0.986,0,1.331,0.446,0.77,0.996l-5.212,5.11C397.565,211.618,396.311,212.064,395.325,212.064z"/>
						<path d="M409.872,212.064h-9.161c-0.986,0-1.33-0.446-0.769-0.996l5.212-5.11c0.561-0.55,1.815-0.996,2.801-0.996h9.161
							c0.986,0,1.33,0.446,0.77,0.996l-5.213,5.11C412.112,211.618,410.858,212.064,409.872,212.064z"/>
						<path d="M424.418,212.064h-9.161c-0.986,0-1.331-0.446-0.77-0.996l5.213-5.11c0.561-0.55,1.815-0.996,2.801-0.996h9.161
							c0.986,0,1.33,0.446,0.77,0.996l-5.213,5.11C426.658,211.618,425.404,212.064,424.418,212.064z"/>
						<path d="M438.964,212.064h-9.161c-0.986,0-1.33-0.446-0.769-0.996l5.213-5.11c0.561-0.55,1.815-0.996,2.801-0.996h9.161
							c0.986,0,1.33,0.446,0.77,0.996l-5.212,5.11C441.204,211.618,439.95,212.064,438.964,212.064z"/>
						<path d="M453.51,212.064h-9.161c-0.986,0-1.331-0.446-0.77-0.996l5.212-5.11c0.561-0.55,1.815-0.996,2.801-0.996h9.161
							c0.986,0,1.33,0.446,0.77,0.996l-5.212,5.11C455.75,211.618,454.496,212.064,453.51,212.064z"/>
						<path d="M468.057,212.064h-9.161c-0.986,0-1.33-0.446-0.769-0.996l5.212-5.11c0.561-0.55,1.815-0.996,2.801-0.996h9.161
							c0.986,0,1.331,0.446,0.77,0.996l-5.212,5.11C470.297,211.618,469.042,212.064,468.057,212.064z"/>
						<path d="M482.603,212.064h-9.161c-0.986,0-1.331-0.446-0.769-0.996l5.212-5.11c0.561-0.55,1.815-0.996,2.801-0.996h9.161
							c0.986,0,1.331,0.446,0.77,0.996l-5.212,5.11C484.843,211.618,483.589,212.064,482.603,212.064z"/>
						<path d="M497.149,212.064h-9.161c-0.986,0-1.331-0.446-0.77-0.996l5.213-5.11c0.561-0.55,1.815-0.996,2.801-0.996h9.161
							c0.986,0,1.33,0.446,0.77,0.996l-5.213,5.11C499.389,211.618,498.135,212.064,497.149,212.064z"/>
						<path d="M511.695,212.064h-9.161c-0.986,0-1.33-0.446-0.77-0.996l5.213-5.11c0.561-0.55,1.815-0.996,2.801-0.996h9.161
							c0.986,0,1.331,0.446,0.77,0.996l-5.213,5.11C513.935,211.618,512.681,212.064,511.695,212.064z"/>
						<path d="M526.242,212.064h-9.161c-0.986,0-1.331-0.446-0.77-0.996l5.213-5.11c0.561-0.55,1.815-0.996,2.801-0.996h9.161
							c0.986,0,1.331,0.446,0.769,0.996l-5.212,5.11C528.482,211.618,527.227,212.064,526.242,212.064z"/>
						<path d="M540.788,212.064h-9.161c-0.986,0-1.331-0.446-0.769-0.996l5.213-5.11c0.561-0.55,1.815-0.996,2.801-0.996h9.161
							c0.986,0,1.33,0.446,0.769,0.996l-5.212,5.11C543.028,211.618,541.774,212.064,540.788,212.064z"/>
						<path d="M562.392,212.064h-16.839c-0.986,0-1.331-0.446-0.77-0.996l5.213-5.11c0.561-0.55,1.815-0.996,2.801-0.996h16.839
							c0.986,0,1.331,0.446,0.77,0.996l-5.213,5.11C564.632,211.618,563.378,212.064,562.392,212.064z"/>
					</g>
					<g>
						<path d="M379.765,220.188h-17.629c-0.986,0-1.33-0.446-0.77-0.996l5.213-5.11c0.561-0.55,1.815-0.996,2.801-0.996h17.629
							c0.986,0,1.331,0.446,0.77,0.996l-5.212,5.11C382.005,219.742,380.752,220.188,379.765,220.188z"/>
						<path d="M394.312,220.188h-9.161c-0.986,0-1.331-0.446-0.769-0.996l5.213-5.11c0.561-0.55,1.815-0.996,2.801-0.996h9.161
							c0.986,0,1.331,0.446,0.769,0.996l-5.212,5.11C396.552,219.742,395.298,220.188,394.312,220.188z"/>
						<path d="M408.858,220.188h-9.161c-0.986,0-1.331-0.446-0.769-0.996l5.212-5.11c0.561-0.55,1.815-0.996,2.801-0.996h9.161
							c0.986,0,1.33,0.446,0.77,0.996l-5.213,5.11C411.098,219.742,409.844,220.188,408.858,220.188z"/>
						<path d="M423.404,220.188h-9.161c-0.986,0-1.331-0.446-0.77-0.996l5.213-5.11c0.561-0.55,1.815-0.996,2.801-0.996h9.161
							c0.986,0,1.331,0.446,0.77,0.996l-5.213,5.11C425.644,219.742,424.39,220.188,423.404,220.188z"/>
						<path d="M437.951,220.188h-9.161c-0.986,0-1.33-0.446-0.769-0.996l5.212-5.11c0.561-0.55,1.815-0.996,2.801-0.996h9.161
							c0.986,0,1.33,0.446,0.77,0.996l-5.213,5.11C440.191,219.742,438.936,220.188,437.951,220.188z"/>
						<path d="M452.497,220.188h-9.161c-0.986,0-1.331-0.446-0.77-0.996l5.213-5.11c0.561-0.55,1.815-0.996,2.801-0.996h9.161
							c0.986,0,1.331,0.446,0.77,0.996l-5.213,5.11C454.737,219.742,453.483,220.188,452.497,220.188z"/>
						<path d="M467.043,220.188h-9.161c-0.986,0-1.331-0.446-0.769-0.996l5.212-5.11c0.561-0.55,1.815-0.996,2.801-0.996h9.161
							c0.986,0,1.331,0.446,0.77,0.996l-5.212,5.11C469.283,219.742,468.029,220.188,467.043,220.188z"/>
						<path d="M481.589,220.188h-9.161c-0.986,0-1.33-0.446-0.77-0.996l5.212-5.11c0.561-0.55,1.815-0.996,2.801-0.996h9.161
							c0.986,0,1.331,0.446,0.77,0.996l-5.213,5.11C483.829,219.742,482.575,220.188,481.589,220.188z"/>
						<path d="M496.135,220.188h-9.161c-0.986,0-1.331-0.446-0.769-0.996l5.212-5.11c0.561-0.55,1.815-0.996,2.801-0.996h9.161
							c0.986,0,1.331,0.446,0.77,0.996l-5.212,5.11C498.376,219.742,497.121,220.188,496.135,220.188z"/>
						<path d="M510.682,220.188h-9.161c-0.986,0-1.33-0.446-0.769-0.996l5.212-5.11c0.561-0.55,1.815-0.996,2.801-0.996h9.161
							c0.986,0,1.33,0.446,0.769,0.996l-5.213,5.11C512.922,219.742,511.668,220.188,510.682,220.188z"/>
						<path d="M525.228,220.188h-9.161c-0.986,0-1.331-0.446-0.77-0.996l5.213-5.11c0.561-0.55,1.815-0.996,2.801-0.996h9.161
							c0.986,0,1.331,0.446,0.77,0.996l-5.213,5.11C527.468,219.742,526.214,220.188,525.228,220.188z"/>
						<path d="M539.774,220.188h-9.161c-0.986,0-1.331-0.446-0.77-0.996l5.212-5.11c0.561-0.55,1.815-0.996,2.801-0.996h9.161
							c0.986,0,1.331,0.446,0.769,0.996l-5.212,5.11C542.014,219.742,540.76,220.188,539.774,220.188z"/>
					</g>
					<g>
						<path d="M363.192,236.436h-17.63c-0.986,0-1.33-0.446-0.77-0.996l5.213-5.11c0.561-0.55,1.815-0.996,2.801-0.996h17.629
							c0.986,0,1.331,0.446,0.77,0.996l-5.212,5.11C365.432,235.991,364.178,236.436,363.192,236.436z"/>
						<path d="M377.738,236.436h-9.161c-0.986,0-1.331-0.446-0.77-0.996l5.212-5.11c0.561-0.55,1.815-0.996,2.801-0.996h9.161
							c0.986,0,1.331,0.446,0.77,0.996l-5.213,5.11C379.979,235.991,378.724,236.436,377.738,236.436z"/>
						<path d="M392.285,236.436h-9.161c-0.986,0-1.331-0.446-0.769-0.996l5.212-5.11c0.561-0.55,1.815-0.996,2.801-0.996h9.161
							c0.986,0,1.331,0.446,0.77,0.996l-5.212,5.11C394.525,235.991,393.271,236.436,392.285,236.436z"/>
						<path d="M406.831,236.436h-9.161c-0.986,0-1.331-0.446-0.77-0.996l5.213-5.11c0.561-0.55,1.815-0.996,2.801-0.996h9.161
							c0.986,0,1.331,0.446,0.77,0.996l-5.213,5.11C409.071,235.991,407.817,236.436,406.831,236.436z"/>
						<path d="M421.377,236.436h-9.161c-0.986,0-1.331-0.446-0.77-0.996l5.213-5.11c0.561-0.55,1.815-0.996,2.801-0.996h9.161
							c0.986,0,1.331,0.446,0.77,0.996l-5.212,5.11C423.617,235.991,422.363,236.436,421.377,236.436z"/>
						<path d="M435.923,236.436h-9.161c-0.986,0-1.33-0.446-0.769-0.996l5.212-5.11c0.561-0.55,1.815-0.996,2.801-0.996h9.161
							c0.986,0,1.331,0.446,0.77,0.996l-5.212,5.11C438.164,235.991,436.909,236.436,435.923,236.436z"/>
						<path d="M450.47,236.436h-9.161c-0.986,0-1.33-0.446-0.769-0.996l5.212-5.11c0.561-0.55,1.815-0.996,2.801-0.996h9.161
							c0.986,0,1.331,0.446,0.769,0.996l-5.212,5.11C452.71,235.991,451.456,236.436,450.47,236.436z"/>
						<path d="M465.016,236.436h-9.161c-0.986,0-1.331-0.446-0.769-0.996l5.212-5.11c0.561-0.55,1.815-0.996,2.801-0.996h9.161
							c0.986,0,1.331,0.446,0.77,0.996l-5.212,5.11C467.256,235.991,466.002,236.436,465.016,236.436z"/>
						<path d="M479.562,236.436h-9.161c-0.986,0-1.331-0.446-0.77-0.996l5.212-5.11c0.561-0.55,1.815-0.996,2.801-0.996h9.161
							c0.986,0,1.33,0.446,0.77,0.996l-5.213,5.11C481.802,235.991,480.548,236.436,479.562,236.436z"/>
						<path d="M494.108,236.436h-9.161c-0.986,0-1.331-0.446-0.77-0.996l5.213-5.11c0.561-0.55,1.815-0.996,2.801-0.996h9.161
							c0.986,0,1.331,0.446,0.77,0.996l-5.213,5.11C496.349,235.991,495.094,236.436,494.108,236.436z"/>
						<path d="M508.655,236.436h-9.161c-0.986,0-1.33-0.446-0.769-0.996l5.212-5.11c0.561-0.55,1.815-0.996,2.801-0.996h9.161
							c0.986,0,1.331,0.446,0.769,0.996l-5.212,5.11C510.895,235.991,509.641,236.436,508.655,236.436z"/>
						<path d="M523.201,236.436h-9.161c-0.986,0-1.331-0.446-0.769-0.996l5.213-5.11c0.561-0.55,1.815-0.996,2.801-0.996h9.161
							c0.986,0,1.331,0.446,0.769,0.996l-5.212,5.11C525.441,235.991,524.187,236.436,523.201,236.436z"/>
						<path d="M537.532,236.436h-9.161c-0.986,0-1.331-0.446-0.769-0.996l9.877-9.684c0.561-0.55,1.815-0.996,2.801-0.996h9.161
							c0.986,0,1.331,0.446,0.769,0.996l-9.877,9.684C539.772,235.991,538.518,236.436,537.532,236.436z"/>
						<path d="M554.105,220.188h-9.161c-0.986,0-1.331-0.446-0.769-0.996l5.213-5.11c0.561-0.55,1.815-0.996,2.801-0.996h9.161
							c0.986,0,1.331,0.446,0.77,0.996l-5.213,5.11C556.345,219.742,555.091,220.188,554.105,220.188z"/>
					</g>
					<g>
						<path d="M363.01,228.312h-9.161c-0.986,0-1.331-0.446-0.77-0.996l5.213-5.11c0.561-0.55,1.815-0.996,2.801-0.996h9.161
							c0.986,0,1.331,0.446,0.77,0.996l-5.213,5.11C365.251,227.866,363.997,228.312,363.01,228.312z"/>
						<path d="M377.557,228.312h-9.161c-0.986,0-1.331-0.446-0.77-0.996l5.213-5.11c0.561-0.55,1.815-0.996,2.801-0.996h9.161
							c0.986,0,1.331,0.446,0.77,0.996l-5.212,5.11C379.797,227.866,378.543,228.312,377.557,228.312z"/>
						<path d="M392.103,228.312h-9.161c-0.986,0-1.331-0.446-0.77-0.996l5.212-5.11c0.561-0.55,1.815-0.996,2.801-0.996h9.161
							c0.986,0,1.331,0.446,0.77,0.996l-5.213,5.11C394.343,227.866,393.089,228.312,392.103,228.312z"/>
						<path d="M406.649,228.312h-9.161c-0.986,0-1.331-0.446-0.769-0.996l5.212-5.11c0.561-0.55,1.815-0.996,2.801-0.996h9.161
							c0.986,0,1.331,0.446,0.769,0.996l-5.213,5.11C408.889,227.866,407.635,228.312,406.649,228.312z"/>
						<path d="M421.196,228.312h-9.161c-0.986,0-1.331-0.446-0.769-0.996l5.212-5.11c0.561-0.55,1.815-0.996,2.801-0.996h9.161
							c0.986,0,1.33,0.446,0.769,0.996l-5.213,5.11C423.436,227.866,422.182,228.312,421.196,228.312z"/>
						<path d="M435.742,228.312h-9.161c-0.986,0-1.331-0.446-0.77-0.996l5.213-5.11c0.561-0.55,1.815-0.996,2.801-0.996h9.161
							c0.986,0,1.331,0.446,0.77,0.996l-5.213,5.11C437.982,227.866,436.728,228.312,435.742,228.312z"/>
						<path d="M450.288,228.312h-9.161c-0.986,0-1.33-0.446-0.769-0.996l5.213-5.11c0.561-0.55,1.815-0.996,2.801-0.996h9.161
							c0.986,0,1.331,0.446,0.769,0.996l-5.212,5.11C452.528,227.866,451.274,228.312,450.288,228.312z"/>
						<path d="M464.834,228.312h-9.161c-0.986,0-1.331-0.446-0.77-0.996l5.212-5.11c0.561-0.55,1.815-0.996,2.801-0.996h9.161
							c0.986,0,1.331,0.446,0.769,0.996l-5.212,5.11C467.074,227.866,465.82,228.312,464.834,228.312z"/>
						<path d="M479.381,228.312h-9.161c-0.986,0-1.331-0.446-0.77-0.996l5.213-5.11c0.561-0.55,1.815-0.996,2.801-0.996h9.161
							c0.986,0,1.331,0.446,0.77,0.996l-5.212,5.11C481.621,227.866,480.366,228.312,479.381,228.312z"/>
						<path d="M493.927,228.312h-9.161c-0.986,0-1.331-0.446-0.77-0.996l5.212-5.11c0.561-0.55,1.815-0.996,2.801-0.996h9.161
							c0.986,0,1.331,0.446,0.77,0.996l-5.212,5.11C496.167,227.866,494.913,228.312,493.927,228.312z"/>
						<path d="M508.473,228.312h-9.161c-0.986,0-1.331-0.446-0.77-0.996l5.213-5.11c0.561-0.55,1.815-0.996,2.801-0.996h9.161
							c0.986,0,1.331,0.446,0.77,0.996l-5.213,5.11C510.713,227.866,509.459,228.312,508.473,228.312z"/>
						<path d="M523.019,228.312h-9.161c-0.986,0-1.33-0.446-0.769-0.996l5.213-5.11c0.561-0.55,1.815-0.996,2.801-0.996h9.161
							c0.986,0,1.331,0.446,0.769,0.996l-5.212,5.11C525.259,227.866,524.005,228.312,523.019,228.312z"/>
						<path d="M545.818,228.312h-17.126c-0.986,0-1.331-0.446-0.769-0.996l5.212-5.11c0.561-0.55,1.815-0.996,2.801-0.996h17.126
							c0.986,0,1.331,0.446,0.769,0.996l-5.213,5.11C548.058,227.866,546.805,228.312,545.818,228.312z"/>
					</g>
					<g>
						<path d="M349.447,244.561h-12.171c-0.986,0-1.331-0.446-0.769-0.996l5.212-5.11c0.561-0.55,1.815-0.996,2.801-0.996h12.171
							c0.986,0,1.33,0.446,0.77,0.996l-5.213,5.11C351.687,244.115,350.433,244.561,349.447,244.561z"/>
						<path d="M360.984,244.561h-5.89c-0.986,0-1.33-0.446-0.769-0.996l5.213-5.11c0.561-0.55,1.815-0.996,2.801-0.996h5.89
							c0.986,0,1.33,0.446,0.769,0.996l-5.212,5.11C363.224,244.115,361.969,244.561,360.984,244.561z"/>
						<path d="M375.53,244.561h-9.161c-0.986,0-1.33-0.446-0.77-0.996l5.213-5.11c0.561-0.55,1.815-0.996,2.801-0.996h9.161
							c0.986,0,1.331,0.446,0.77,0.996l-5.212,5.11C377.77,244.115,376.516,244.561,375.53,244.561z"/>
						<path d="M390.076,244.561h-9.161c-0.986,0-1.33-0.446-0.769-0.996l5.213-5.11c0.561-0.55,1.815-0.996,2.801-0.996h9.161
							c0.986,0,1.33,0.446,0.77,0.996l-5.213,5.11C392.316,244.115,391.062,244.561,390.076,244.561z"/>
						<path d="M404.622,244.561h-9.161c-0.986,0-1.33-0.446-0.77-0.996l5.213-5.11c0.561-0.55,1.815-0.996,2.801-0.996h9.161
							c0.986,0,1.331,0.446,0.77,0.996l-5.213,5.11C406.863,244.115,405.608,244.561,404.622,244.561z"/>
						<path d="M419.169,244.561h-9.161c-0.986,0-1.331-0.446-0.77-0.996l5.213-5.11c0.561-0.55,1.815-0.996,2.801-0.996h9.161
							c0.986,0,1.33,0.446,0.769,0.996l-5.212,5.11C421.408,244.115,420.155,244.561,419.169,244.561z"/>
						<path d="M433.715,244.561h-9.161c-0.986,0-1.331-0.446-0.77-0.996l5.212-5.11c0.561-0.55,1.815-0.996,2.801-0.996h9.161
							c0.986,0,1.331,0.446,0.77,0.996l-5.213,5.11C435.955,244.115,434.701,244.561,433.715,244.561z"/>
						<path d="M448.261,244.561H439.1c-0.986,0-1.331-0.446-0.769-0.996l5.212-5.11c0.561-0.55,1.815-0.996,2.801-0.996h9.161
							c0.986,0,1.331,0.446,0.769,0.996l-5.212,5.11C450.501,244.115,449.247,244.561,448.261,244.561z"/>
						<path d="M462.807,244.561h-9.161c-0.986,0-1.331-0.446-0.769-0.996l5.212-5.11c0.561-0.55,1.815-0.996,2.801-0.996h9.161
							c0.986,0,1.331,0.446,0.77,0.996l-5.212,5.11C465.047,244.115,463.793,244.561,462.807,244.561z"/>
						<path d="M477.353,244.561h-9.161c-0.986,0-1.331-0.446-0.77-0.996l5.213-5.11c0.561-0.55,1.815-0.996,2.801-0.996h9.161
							c0.986,0,1.33,0.446,0.77,0.996l-5.213,5.11C479.594,244.115,478.34,244.561,477.353,244.561z"/>
						<path d="M491.9,244.561h-9.161c-0.986,0-1.33-0.446-0.77-0.996l5.213-5.11c0.561-0.55,1.815-0.996,2.801-0.996h9.161
							c0.986,0,1.331,0.446,0.77,0.996l-5.213,5.11C494.14,244.115,492.886,244.561,491.9,244.561z"/>
						<path d="M529.245,244.561h-31.96c-0.986,0-1.331-0.446-0.769-0.996l5.212-5.11c0.561-0.55,1.815-0.996,2.801-0.996h14.236
							h17.725c0.986,0,1.331,0.446,0.769,0.996l-5.212,5.11C531.485,244.115,530.231,244.561,529.245,244.561z"/>
					</g>
					<g>
						<path d="M338.151,252.685h-9.161c-0.986,0-1.331-0.446-0.77-0.996l5.212-5.11c0.561-0.55,1.815-0.996,2.801-0.996h9.161
							c0.986,0,1.331,0.446,0.769,0.996l-5.213,5.11C340.391,252.239,339.137,252.685,338.151,252.685z"/>
						<path d="M352.697,252.685h-9.161c-0.986,0-1.331-0.446-0.77-0.996l5.212-5.11c0.561-0.55,1.815-0.996,2.801-0.996h9.161
							c0.986,0,1.331,0.446,0.77,0.996l-5.213,5.11C354.937,252.239,353.683,252.685,352.697,252.685z"/>
						<path d="M367.243,252.685h-9.161c-0.986,0-1.331-0.446-0.769-0.996l5.212-5.11c0.561-0.55,1.815-0.996,2.801-0.996h9.161
							c0.986,0,1.331,0.446,0.769,0.996l-5.213,5.11C369.483,252.239,368.229,252.685,367.243,252.685z"/>
						<path d="M381.789,252.685h-9.161c-0.986,0-1.331-0.446-0.77-0.996l5.213-5.11c0.561-0.55,1.815-0.996,2.801-0.996h9.161
							c0.986,0,1.331,0.446,0.77,0.996l-5.213,5.11C384.03,252.239,382.775,252.685,381.789,252.685z"/>
						<path d="M498.043,252.685h-9.161c-0.986,0-1.331-0.446-0.77-0.996l5.213-5.11c0.561-0.55,1.815-0.996,2.801-0.996h9.161
							c0.986,0,1.331,0.446,0.77,0.996l-5.212,5.11C500.283,252.239,499.029,252.685,498.043,252.685z"/>
						<path d="M454.521,252.685h-67.346c-0.986,0-1.33-0.446-0.769-0.996l5.213-5.11c0.561-0.55,1.815-0.996,2.801-0.996h67.346
							c0.986,0,1.33,0.446,0.77,0.996l-5.213,5.11C456.761,252.239,455.507,252.685,454.521,252.685z"/>
						<path d="M469.067,252.685h-9.161c-0.986,0-1.33-0.446-0.77-0.996l5.213-5.11c0.561-0.55,1.815-0.996,2.801-0.996h9.161
							c0.986,0,1.331,0.446,0.77,0.996l-5.213,5.11C471.307,252.239,470.053,252.685,469.067,252.685z"/>
						<path d="M487.842,248.653h-9.161c-0.986,0-1.331-0.446-0.77-0.996l1.1-1.079c0.561-0.55,1.815-0.996,2.801-0.996h9.161
							c0.986,0,1.331,0.446,0.77,0.996l-1.1,1.079C490.082,248.207,488.828,248.653,487.842,248.653z"/>
						<path d="M483.652,252.761h-9.161c-0.986,0-1.331-0.446-0.77-0.996l1.591-1.559c0.561-0.55,1.815-0.996,2.801-0.996h9.161
							c0.986,0,1.331,0.446,0.77,0.996l-1.59,1.559C485.892,252.315,484.638,252.761,483.652,252.761z"/>
						<path d="M520.958,252.685h-17.126c-0.986,0-1.33-0.446-0.769-0.996l5.213-5.11c0.561-0.55,1.815-0.996,2.801-0.996h17.126
							c0.986,0,1.331,0.446,0.769,0.996l-5.213,5.11C523.199,252.239,521.945,252.685,520.958,252.685z"/>
					</g>
				</g>
				<path style="opacity:0.5;fill:#9FA6A5;" d="M434.114,279.237h-73.572c-2.607,0-3.518-1.179-2.035-2.634l15.977-15.664
					c1.484-1.455,4.8-2.633,7.407-2.633h73.572c2.608,0,3.519,1.179,2.035,2.633l-15.977,15.664
					C440.038,278.058,436.721,279.237,434.114,279.237z"/>
			</g>
			<path d="M595.937,199.27H363.248V47.62c0-4.804,3.895-8.699,8.699-8.699h215.291c4.805,0,8.699,3.895,8.699,8.699V199.27z"/>
			<rect x="371.124" y="50.274" style="fill:#A2C3BF;" width="216.938" height="143.776"/>
		</g>
	</g>
	<g>
		<g>
			<rect x="223.924" y="373.409" style="fill:#FF7575;" width="128.873" height="80.497"/>
			<polyline style="fill:none;stroke:#171616;stroke-width:0.5;stroke-linecap:round;stroke-miterlimit:10;" points="
				351.529,376.668 287.093,415.33 222.657,376.668 			"/>
		</g>
		<g>
			<g>
				<rect x="248.908" y="353.773" style="fill:#A2C3BF;" width="126.344" height="75.807"/>
				<path style="fill:#A2C3BF;" d="M375.169,354.071l-61.937-35.686l-64.407,35.686
					C248.825,354.071,375.169,354.368,375.169,354.071z"/>
				<polygon style="fill:#E3A81E;" points="358.064,362.553 306.584,388.107 270.961,367.775 271.707,310.494 358.064,310.494 				
					"/>
			</g>
			
				<line style="fill:none;stroke:#1B2258;stroke-width:0.5;stroke-miterlimit:10;" x1="250.038" y1="355.39" x2="374.207" y2="427.935"/>
			<path style="fill:none;stroke:#1B2258;stroke-width:0.5;stroke-miterlimit:10;" d="M278.376,334.338
				c3.279,0.124,6.589-0.727,9.402-2.416c2.094-1.258,4.015-4.127,2.356-5.92c-2.638-0.082-4.29,3.453-3.076,5.797
				c1.213,2.343,4.231,3.273,6.835,2.843c2.604-0.43,4.889-1.927,7.071-3.412c1.581-1.077,3.366-2.796,2.654-4.572
				c-2.107-1.264-5.019,1.114-4.781,3.56c0.238,2.446,2.688,4.216,5.133,4.469c2.444,0.253,4.85-0.662,7.083-1.687
				c3.13-1.437,6.445-3.507,7.219-6.863c-2.454-1.775-6.24,1.124-5.874,4.13c0.366,3.007,3.583,5.027,6.612,5.031
				c3.029,0.004,5.841-1.508,8.379-3.161c1.803-1.174,3.609-3.88,1.84-5.105c-0.714-0.494-1.711-0.364-2.47,0.057
				c-2.229,1.238-2.569,4.658-0.976,6.649c1.593,1.991,4.528,2.554,6.973,1.83c2.445-0.724,4.442-2.523,5.992-4.547
				c1.123-1.466,1.617-4.238-0.194-4.597c-0.685-0.136-1.381,0.239-1.869,0.739c-2.415,2.478-0.15,7.063,3.176,8.021
				c3.325,0.958,6.829-0.496,9.915-2.062"/>
			
				<line style="fill:none;stroke:#1B2258;stroke-width:0.5;stroke-miterlimit:10;" x1="371.503" y1="355.674" x2="306.584" y2="387.361"/>
		</g>
	</g>
	<g>
		<g>
			
				<rect x="457.16" y="115.255" transform="matrix(0.0028 -1 1 0.0028 381.0707 635.7969)" style="fill:#70A1BD;" width="104.313" height="23.158"/>
			
				<rect x="483.683" y="107.313" transform="matrix(0.0023 -1 1 0.0023 423.6773 662.42)" style="fill:#38668A;" width="120.23" height="23.158"/>
			
				<rect x="432.804" y="123.612" transform="matrix(0.0028 -1 1 0.0028 339.9976 611.3226)" style="fill:#E3A81E;" width="87.41" height="23.158"/>
			<polygon style="fill:#FFFFFF;" points="455.41,113.041 455.182,178.824 432.024,178.777 432.253,112.995 			"/>
			<polygon style="fill:#C13F4F;" points="421.845,144.815 421.727,178.734 398.57,178.688 398.688,144.769 			"/>
		</g>
		<line style="fill:none;stroke:#1B2258;stroke-miterlimit:10;" x1="386.448" y1="179.412" x2="566.326" y2="179.05"/>
	</g>
	<g>
		<polyline style="fill:none;stroke:#000000;stroke-miterlimit:10;" points="54.648,118.776 83.106,91.861 102.876,133.634 
			129.669,99.128 148.424,124.135 178.344,73.675 219.276,129.2 		"/>
		
			<ellipse transform="matrix(0.3701 -0.929 0.929 0.3701 18.0965 285.0883)" style="fill:#38668A;" cx="219.276" cy="129.2" rx="11.004" ry="11.004"/>
		<path style="fill:#C13F4F;" d="M135.501,99.128c0,3.221-2.611,5.832-5.832,5.832c-3.221,0-5.831-2.611-5.831-5.832
			c0-3.221,2.611-5.831,5.831-5.831C132.89,93.297,135.501,95.907,135.501,99.128z"/>
		
			<ellipse transform="matrix(0.2298 -0.9732 0.9732 0.2298 -75.1542 145.2709)" style="fill:#38668A;" cx="54.202" cy="120.116" rx="8.485" ry="8.485"/>
		<path style="fill:#C13F4F;" d="M92.842,92.788c0,5.633-4.567,10.2-10.2,10.2c-5.633,0-10.2-4.567-10.2-10.2
			c0-5.633,4.567-10.2,10.2-10.2C88.275,82.588,92.842,87.155,92.842,92.788z"/>
		<circle style="fill:#C13F4F;" cx="178.525" cy="73.737" r="8.577"/>
		
			<ellipse transform="matrix(0.7071 -0.7071 0.7071 0.7071 -44.62 141.441)" style="fill:#38668A;" cx="148.424" cy="124.582" rx="7.621" ry="7.621"/>
		<path style="fill:#38668A;" d="M96.101,133.634c0-3.742,3.033-6.775,6.775-6.775s6.775,3.033,6.775,6.775
			c0,3.742-3.033,6.775-6.775,6.775S96.101,137.375,96.101,133.634z"/>
	</g>
	<g>
		<g>
			<g>
				<g>
					<path style="fill:#1B2258;" d="M159.267,235.072c0.106-2.982,2.608-5.314,5.591-5.208c2.982,0.106,5.314,2.609,5.208,5.59
						c-0.007,0.188-0.049,0.364-0.074,0.546c2.121-0.279,4.18-0.759,6.157-1.426c-0.112-0.165-0.237-0.318-0.333-0.499
						c-1.4-2.636-0.398-5.906,2.237-7.306c2.635-1.4,5.906-0.398,7.306,2.237c0.094,0.177,0.15,0.362,0.222,0.544
						c1.684-1.289,3.24-2.74,4.644-4.329c-0.194-0.091-0.391-0.168-0.577-0.285c-2.53-1.582-3.298-4.916-1.715-7.446
						c1.583-2.53,4.916-3.298,7.446-1.715c0.189,0.118,0.348,0.264,0.517,0.401c0.815-1.948,1.446-3.994,1.875-6.117
						c-0.236,0.023-0.469,0.055-0.712,0.046c-2.982-0.105-5.314-2.608-5.208-5.591c0.106-2.982,2.609-5.314,5.591-5.208
						c0.249,0.009,0.485,0.058,0.723,0.099c-0.274-2.168-0.76-4.273-1.439-6.292c-0.212,0.157-0.424,0.316-0.664,0.444
						c-2.636,1.4-5.906,0.398-7.306-2.238c-1.4-2.635-0.398-5.906,2.238-7.306c0.242-0.128,0.492-0.215,0.743-0.303
						c-1.317-1.727-2.802-3.321-4.432-4.756c-0.111,0.261-0.225,0.522-0.38,0.77c-1.583,2.53-4.916,3.298-7.446,1.715
						c-2.53-1.582-3.298-4.916-1.715-7.446c0.154-0.247,0.338-0.462,0.523-0.675c-1.99-0.83-4.08-1.47-6.25-1.896
						c0.038,0.292,0.069,0.587,0.058,0.892c-0.106,2.982-2.609,5.314-5.591,5.208c-2.982-0.106-5.314-2.608-5.208-5.59
						c0.01-0.291,0.062-0.57,0.116-0.847c-2.192,0.286-4.319,0.79-6.357,1.491c0.177,0.232,0.35,0.47,0.492,0.736
						c1.4,2.635,0.398,5.906-2.238,7.306c-2.635,1.4-5.906,0.398-7.306-2.238c-0.132-0.248-0.222-0.505-0.311-0.762
						c-1.719,1.327-3.3,2.824-4.725,4.463c0.253,0.109,0.506,0.218,0.747,0.369c2.53,1.582,3.298,4.916,1.715,7.446
						c-1.582,2.53-4.916,3.298-7.446,1.715c-0.222-0.139-0.412-0.306-0.606-0.47c-0.807,1.972-1.428,4.042-1.84,6.189
						c0.253-0.027,0.505-0.059,0.766-0.05c2.982,0.105,5.314,2.609,5.208,5.591c-0.105,2.982-2.609,5.314-5.591,5.208
						c-0.23-0.008-0.448-0.056-0.669-0.092c0.291,2.145,0.79,4.226,1.479,6.222c0.186-0.132,0.364-0.271,0.571-0.381
						c2.635-1.4,5.906-0.398,7.306,2.237c1.4,2.635,0.398,5.906-2.238,7.306c-0.182,0.097-0.372,0.154-0.559,0.229
						c1.299,1.675,2.759,3.22,4.356,4.615c0.088-0.185,0.162-0.375,0.274-0.554c1.582-2.53,4.916-3.298,7.446-1.715
						c2.53,1.583,3.298,4.916,1.715,7.446c-0.103,0.164-0.231,0.3-0.348,0.449c1.93,0.793,3.956,1.404,6.056,1.818
						C159.291,235.464,159.26,235.272,159.267,235.072z M143.663,202.762c0.43-12.152,10.631-21.655,22.783-21.225
						c12.152,0.43,21.655,10.631,21.225,22.783c-0.43,12.152-10.631,21.655-22.783,21.225
						C152.735,225.115,143.232,214.914,143.663,202.762z"/>
				</g>
				<path style="fill:#1B2258;" d="M141.162,208.499c2.732,13.523,15.956,22.302,29.48,19.571
					c13.523-2.732,22.302-15.955,19.57-29.478c-2.732-13.523-15.956-22.305-29.479-19.573
					C147.21,181.75,138.431,194.975,141.162,208.499z M162.359,187.067c9.085-1.835,17.969,4.064,19.804,13.149
					c1.835,9.085-4.063,17.969-13.148,19.804c-9.085,1.835-17.97-4.063-19.805-13.148
					C147.376,197.788,153.274,188.902,162.359,187.067z"/>
			</g>
		</g>
		<g>
			<g>
				<g>
					<path style="fill:#6BA7B3;" d="M74.423,260.611c0.156-4.414,3.861-7.866,8.275-7.71c4.414,0.156,7.866,3.861,7.71,8.275
						c-0.01,0.278-0.073,0.539-0.11,0.808c3.139-0.413,6.188-1.124,9.114-2.111c-0.167-0.244-0.351-0.471-0.493-0.738
						c-2.072-3.901-0.589-8.743,3.312-10.815c3.901-2.072,8.743-0.589,10.815,3.312c0.139,0.262,0.222,0.536,0.329,0.805
						c2.493-1.909,4.795-4.055,6.875-6.408c-0.286-0.135-0.579-0.249-0.854-0.421c-3.745-2.342-4.881-7.278-2.539-11.022
						c2.343-3.745,7.277-4.882,11.022-2.539c0.28,0.175,0.515,0.391,0.766,0.594c1.207-2.884,2.141-5.912,2.775-9.055
						c-0.349,0.034-0.694,0.082-1.054,0.069c-4.414-0.156-7.866-3.861-7.71-8.276c0.156-4.414,3.862-7.866,8.276-7.71
						c0.368,0.013,0.718,0.086,1.071,0.146c-0.405-3.21-1.125-6.325-2.13-9.314c-0.315,0.232-0.628,0.467-0.983,0.656
						c-3.901,2.072-8.743,0.589-10.815-3.312c-2.072-3.901-0.589-8.743,3.312-10.815c0.357-0.19,0.729-0.318,1.1-0.449
						c-1.949-2.557-4.148-4.916-6.561-7.04c-0.164,0.387-0.333,0.773-0.563,1.14c-2.343,3.745-7.277,4.882-11.022,2.539
						c-3.745-2.342-4.882-7.277-2.539-11.022c0.228-0.365,0.5-0.684,0.774-0.999c-2.946-1.228-6.039-2.176-9.252-2.807
						c0.057,0.432,0.102,0.869,0.086,1.32c-0.156,4.414-3.862,7.866-8.276,7.71c-4.414-0.156-7.866-3.861-7.71-8.275
						c0.015-0.432,0.091-0.844,0.171-1.255c-3.245,0.424-6.393,1.17-9.41,2.207c0.262,0.344,0.518,0.695,0.728,1.09
						c2.072,3.901,0.589,8.743-3.312,10.815c-3.901,2.072-8.743,0.589-10.815-3.312c-0.195-0.367-0.328-0.748-0.461-1.129
						c-2.544,1.964-4.885,4.181-6.994,6.607c0.375,0.161,0.749,0.323,1.106,0.546c3.745,2.342,4.882,7.277,2.539,11.022
						c-2.342,3.745-7.277,4.882-11.022,2.539c-0.329-0.205-0.61-0.453-0.898-0.696c-1.195,2.919-2.113,5.983-2.724,9.162
						c0.374-0.04,0.747-0.088,1.134-0.074c4.414,0.156,7.866,3.862,7.71,8.276c-0.156,4.414-3.861,7.866-8.276,7.71
						c-0.341-0.012-0.663-0.082-0.991-0.135c0.431,3.175,1.169,6.255,2.189,9.211c0.276-0.195,0.539-0.402,0.845-0.564
						c3.901-2.072,8.743-0.589,10.815,3.312c2.072,3.901,0.589,8.743-3.312,10.815c-0.269,0.143-0.552,0.229-0.828,0.339
						c1.923,2.479,4.084,4.767,6.448,6.831c0.131-0.275,0.24-0.556,0.405-0.82c2.342-3.745,7.277-4.882,11.022-2.539
						c3.745,2.343,4.881,7.277,2.539,11.022c-0.152,0.243-0.342,0.444-0.515,0.665c2.857,1.174,5.856,2.078,8.964,2.692
						C74.458,261.191,74.412,260.908,74.423,260.611z M51.324,212.783c0.637-17.989,15.737-32.056,33.726-31.419
						c17.989,0.637,32.056,15.737,31.419,33.726c-0.637,17.989-15.736,32.056-33.726,31.419
						C64.754,245.871,50.687,230.772,51.324,212.783z"/>
				</g>
				<path style="fill:none;stroke:#2D2D2D;stroke-linecap:round;stroke-miterlimit:10;" d="M47.623,221.275
					c4.044,20.018,23.62,33.013,43.638,28.97c20.018-4.044,33.013-23.618,28.97-43.636c-4.044-20.018-23.619-33.017-43.637-28.973
					C56.576,181.68,43.579,201.257,47.623,221.275z M79,189.55c13.448-2.717,26.599,6.016,29.316,19.464
					c2.716,13.449-6.014,26.599-19.462,29.316c-13.448,2.717-26.6-6.014-29.317-19.462C56.821,205.42,65.552,192.267,79,189.55z"/>
			</g>
		</g>
	</g>
	<g>
		<g>
			<path style="fill:#6BA7B3;" d="M459.881,406.949c-0.086-15.218-12.903-27.387-28.298-26.468
				c-12.985,0.775-23.735,11.145-24.922,24.098c-0.855,9.331,3.098,17.759,9.651,23.131c4.017,3.293,6.727,7.908,7.295,13.071
				l1.582,14.367l16.593-0.094l1.419-14.388c0.507-5.14,3.116-9.789,7.083-13.096C456.186,422.65,459.928,415.235,459.881,406.949z"
				/>
			<path style="fill:#1B2258;" d="M433.505,458.658L433.505,458.658c-5.782,0.033-10.496-4.628-10.529-10.41l-0.026-4.543
				l20.939-0.119l0.026,4.543C443.948,453.911,439.288,458.625,433.505,458.658z"/>
			<line style="fill:#F2E4C2;" x1="420.61" y1="448.854" x2="446.29" y2="448.708"/>
			<line style="fill:#F2E4C2;" x1="420.639" y1="453.99" x2="446.319" y2="453.844"/>
			<path style="fill:none;stroke:#222540;stroke-width:0.5;stroke-miterlimit:10;" d="M429.392,445.906
				c-1.391-6.494-2.782-12.987-4.174-19.481c-1.289-6.015-4.004-12.287-4.547-18.339c-0.279-3.105,3.074-3.606,4.819-1.701
				c1.29,1.409,1.71,4.017,1.632,5.863c0.094-2.18,0.677-4.338,1.694-6.268c0.206-0.39,0.446-0.789,0.829-1.008
				c0.612-0.35,1.431-0.119,1.931,0.377c0.5,0.496,0.74,1.196,0.891,1.885c0.406,1.857,0.268,3.829-0.392,5.611
				c0.72-2.128,1.638-4.188,2.74-6.145c0.639-1.136,1.798-2.405,3.006-1.913c0.838,0.341,1.141,1.365,1.231,2.265
				c0.178,1.788-0.076,3.618-0.736,5.29c0.359-2.21,1.179-4.344,2.391-6.226c0.58-0.901,1.47-1.839,2.527-1.669
				c0.73,0.117,1.285,0.765,1.513,1.468c0.896,2.761-0.236,5.941-0.747,8.717c-0.783,4.25-1.566,8.5-2.35,12.75
				c-1.103,5.983-2.205,11.966-3.307,17.949"/>
		</g>
		<path style="fill:none;stroke:#2D2D2D;stroke-linecap:round;stroke-miterlimit:10;" d="M392.18,400.233
			c4.817,0.67,3.258,0.453,8.157,1.135"/>
		<path style="fill:none;stroke:#2D2D2D;stroke-linecap:round;stroke-miterlimit:10;" d="M397.8,378.107
			c2.408,1.242,4.529,4.408,6.128,6.594"/>
		<path style="fill:none;stroke:#2D2D2D;stroke-linecap:round;stroke-miterlimit:10;" d="M425.151,367.535
			c0.406,2.089,0.819,5.537,1.224,7.626"/>
		<path style="fill:none;stroke:#2D2D2D;stroke-linecap:round;stroke-miterlimit:10;" d="M442.648,366.798
			c-0.59,4.489-0.994,7.567-1.234,9.394"/>
		<path style="fill:none;stroke:#2D2D2D;stroke-linecap:round;stroke-miterlimit:10;" d="M467.849,384.821
			c-4.134,2.897-3.852,2.699-8.108,5.681"/>
		<path style="fill:none;stroke:#2D2D2D;stroke-linecap:round;stroke-miterlimit:10;" d="M466.075,403.191
			c4.991,0.328,3.75,0.246,8.769,0.576"/>
	</g>
	<path style="fill:none;stroke:#222540;stroke-miterlimit:10;" d="M187.679,417.717c0-4.291,3.479-7.77,7.77-7.77
		s7.77,3.479,7.77,7.77"/>
	<path style="fill:none;stroke:#222540;stroke-miterlimit:10;" d="M576.313,285.299c0,3.616-2.931,6.548-6.548,6.548
		c-3.616,0-6.548-2.932-6.548-6.548c0-3.616,2.932-6.548,6.548-6.548C573.382,278.751,576.313,281.683,576.313,285.299z"/>
	<g>
		<g>
			<circle style="fill:#E3A81E;" cx="432.804" cy="335.233" r="20.993"/>
			<g>
				<path style="fill:#38668A;" d="M431.578,346.811c-0.109,0.021-0.196,0.033-0.261,0.033s-0.13,0-0.195,0
					c-0.673,0-1.282-0.022-1.824-0.065c-0.543-0.044-1.048-0.109-1.515-0.195c-0.467-0.087-0.918-0.196-1.352-0.326
					c-0.435-0.13-0.88-0.271-1.336-0.424c0.043-0.477,0.135-0.961,0.277-1.45c0.141-0.489,0.298-0.961,0.472-1.417
					c0.738,0.239,1.499,0.451,2.281,0.635c0.782,0.185,1.726,0.277,2.834,0.277c1.781,0,3.106-0.347,3.975-1.042
					c0.868-0.695,1.303-1.65,1.303-2.867c0-0.608-0.093-1.118-0.277-1.531c-0.185-0.412-0.462-0.771-0.831-1.075
					c-0.369-0.304-0.836-0.581-1.401-0.831c-0.565-0.249-1.227-0.538-1.987-0.863l-1.564-0.651c-0.651-0.261-1.249-0.554-1.792-0.88
					c-0.543-0.326-1.016-0.711-1.417-1.156c-0.402-0.445-0.712-0.972-0.928-1.58c-0.217-0.608-0.326-1.336-0.326-2.183
					c0-1.672,0.505-3.04,1.515-4.105c1.01-1.064,2.459-1.727,4.349-1.987v-3.16c0.326-0.087,0.695-0.13,1.108-0.13
					c0.434,0,0.825,0.044,1.173,0.13v3.03c0.912,0.044,1.808,0.142,2.688,0.293c0.88,0.152,1.634,0.348,2.264,0.587
					c-0.109,0.912-0.348,1.814-0.717,2.704c-0.587-0.217-1.26-0.407-2.02-0.57c-0.761-0.163-1.64-0.244-2.639-0.244
					c-1.368,0-2.422,0.261-3.16,0.782c-0.739,0.521-1.107,1.325-1.107,2.411c0,0.521,0.098,0.972,0.293,1.352
					c0.195,0.38,0.483,0.717,0.863,1.01c0.379,0.293,0.836,0.559,1.368,0.798c0.532,0.239,1.134,0.5,1.808,0.782l1.238,0.521
					c0.782,0.326,1.487,0.663,2.117,1.01c0.629,0.348,1.167,0.761,1.612,1.238c0.445,0.478,0.793,1.042,1.043,1.694
					c0.25,0.651,0.375,1.444,0.375,2.378c0,1.846-0.527,3.35-1.58,4.512c-1.054,1.162-2.536,1.928-4.447,2.297v3.746
					c-0.174,0.043-0.358,0.076-0.554,0.098c-0.195,0.021-0.38,0.033-0.553,0.033c-0.195,0-0.391-0.011-0.587-0.033
					c-0.196-0.022-0.391-0.054-0.586-0.098V346.811z"/>
			</g>
		</g>
		<g>
			<circle style="fill:#E3A81E;" cx="493.336" cy="335.233" r="20.993"/>
			<g>
				<path style="fill:#38668A;" d="M492.11,346.811c-0.109,0.021-0.195,0.033-0.261,0.033c-0.065,0-0.13,0-0.195,0
					c-0.674,0-1.282-0.022-1.824-0.065c-0.543-0.044-1.048-0.109-1.515-0.195c-0.467-0.087-0.918-0.196-1.352-0.326
					c-0.435-0.13-0.88-0.271-1.336-0.424c0.043-0.477,0.135-0.961,0.277-1.45c0.141-0.489,0.298-0.961,0.472-1.417
					c0.738,0.239,1.499,0.451,2.281,0.635c0.782,0.185,1.726,0.277,2.834,0.277c1.781,0,3.106-0.347,3.975-1.042
					c0.868-0.695,1.303-1.65,1.303-2.867c0-0.608-0.093-1.118-0.277-1.531c-0.185-0.412-0.462-0.771-0.831-1.075
					c-0.369-0.304-0.836-0.581-1.401-0.831c-0.565-0.249-1.227-0.538-1.987-0.863l-1.564-0.651c-0.651-0.261-1.249-0.554-1.792-0.88
					c-0.543-0.326-1.016-0.711-1.417-1.156c-0.402-0.445-0.712-0.972-0.928-1.58c-0.217-0.608-0.326-1.336-0.326-2.183
					c0-1.672,0.505-3.04,1.515-4.105c1.01-1.064,2.459-1.727,4.349-1.987v-3.16c0.326-0.087,0.695-0.13,1.108-0.13
					c0.434,0,0.825,0.044,1.172,0.13v3.03c0.912,0.044,1.808,0.142,2.688,0.293c0.88,0.152,1.634,0.348,2.264,0.587
					c-0.109,0.912-0.348,1.814-0.717,2.704c-0.587-0.217-1.26-0.407-2.02-0.57c-0.761-0.163-1.64-0.244-2.639-0.244
					c-1.368,0-2.422,0.261-3.16,0.782c-0.739,0.521-1.107,1.325-1.107,2.411c0,0.521,0.098,0.972,0.293,1.352
					c0.195,0.38,0.483,0.717,0.863,1.01c0.38,0.293,0.836,0.559,1.368,0.798c0.532,0.239,1.134,0.5,1.808,0.782l1.238,0.521
					c0.782,0.326,1.487,0.663,2.118,1.01c0.629,0.348,1.167,0.761,1.612,1.238c0.445,0.478,0.793,1.042,1.043,1.694
					c0.25,0.651,0.375,1.444,0.375,2.378c0,1.846-0.527,3.35-1.58,4.512c-1.054,1.162-2.536,1.928-4.447,2.297v3.746
					c-0.174,0.043-0.358,0.076-0.554,0.098c-0.195,0.021-0.38,0.033-0.553,0.033c-0.195,0-0.391-0.011-0.587-0.033
					c-0.196-0.022-0.391-0.054-0.586-0.098V346.811z"/>
			</g>
		</g>
		<g>
			<circle style="fill:#E3A81E;" cx="553.869" cy="335.233" r="20.993"/>
			<g>
				<path style="fill:#38668A;" d="M552.643,346.811c-0.109,0.021-0.195,0.033-0.261,0.033s-0.13,0-0.195,0
					c-0.674,0-1.282-0.022-1.824-0.065c-0.543-0.044-1.048-0.109-1.515-0.195c-0.467-0.087-0.918-0.196-1.352-0.326
					c-0.435-0.13-0.88-0.271-1.336-0.424c0.043-0.477,0.135-0.961,0.277-1.45c0.141-0.489,0.298-0.961,0.472-1.417
					c0.738,0.239,1.499,0.451,2.281,0.635c0.782,0.185,1.726,0.277,2.834,0.277c1.781,0,3.106-0.347,3.975-1.042
					c0.868-0.695,1.303-1.65,1.303-2.867c0-0.608-0.093-1.118-0.277-1.531c-0.185-0.412-0.462-0.771-0.831-1.075
					c-0.369-0.304-0.836-0.581-1.401-0.831c-0.565-0.249-1.227-0.538-1.987-0.863l-1.564-0.651c-0.651-0.261-1.249-0.554-1.792-0.88
					c-0.543-0.326-1.016-0.711-1.417-1.156c-0.402-0.445-0.712-0.972-0.928-1.58c-0.217-0.608-0.326-1.336-0.326-2.183
					c0-1.672,0.505-3.04,1.515-4.105c1.01-1.064,2.459-1.727,4.349-1.987v-3.16c0.326-0.087,0.695-0.13,1.108-0.13
					c0.434,0,0.825,0.044,1.173,0.13v3.03c0.912,0.044,1.808,0.142,2.688,0.293c0.88,0.152,1.634,0.348,2.264,0.587
					c-0.109,0.912-0.348,1.814-0.717,2.704c-0.587-0.217-1.26-0.407-2.02-0.57c-0.761-0.163-1.64-0.244-2.639-0.244
					c-1.368,0-2.422,0.261-3.16,0.782c-0.739,0.521-1.107,1.325-1.107,2.411c0,0.521,0.098,0.972,0.293,1.352
					c0.195,0.38,0.483,0.717,0.863,1.01c0.379,0.293,0.836,0.559,1.368,0.798c0.532,0.239,1.135,0.5,1.808,0.782l1.238,0.521
					c0.782,0.326,1.487,0.663,2.117,1.01c0.63,0.348,1.167,0.761,1.612,1.238c0.445,0.478,0.793,1.042,1.043,1.694
					c0.25,0.651,0.375,1.444,0.375,2.378c0,1.846-0.527,3.35-1.58,4.512c-1.054,1.162-2.536,1.928-4.447,2.297v3.746
					c-0.174,0.043-0.358,0.076-0.554,0.098c-0.195,0.021-0.38,0.033-0.553,0.033c-0.195,0-0.391-0.011-0.587-0.033
					c-0.196-0.022-0.391-0.054-0.586-0.098V346.811z"/>
			</g>
		</g>
	</g>
	<path style="fill:none;stroke:#222540;stroke-miterlimit:10;" d="M190.787,445.688c0,2.575-2.087,4.662-4.662,4.662
		c-2.575,0-4.662-2.087-4.662-4.662c0-2.575,2.087-4.662,4.662-4.662C188.7,441.026,190.787,443.113,190.787,445.688z"/>
	<path style="fill:none;stroke:#222540;stroke-miterlimit:10;" d="M581.865,265.948c0,3.283-3.179,5.945-7.101,5.945
		c-3.922,0-7.101-2.662-7.101-5.945"/>
	<path style="fill:none;stroke:#222540;stroke-miterlimit:10;" d="M280.523,226.5c1.986-2.626,5.135-4.322,8.681-4.322
		c6.008,0,10.878,4.87,10.878,10.878c0,6.008-4.87,10.878-10.878,10.878c-3.572,0-6.741-1.721-8.724-4.38"/>
	<path style="fill:none;stroke:#222540;stroke-miterlimit:10;" d="M149.991,402.097c1.986-2.626,5.135-4.322,8.681-4.322
		c6.008,0,10.878,4.87,10.878,10.878c0,6.008-4.87,10.878-10.878,10.878c-3.572,0-6.741-1.721-8.725-4.38"/>
	<circle style="fill:none;stroke:#222540;stroke-miterlimit:10;" cx="316.657" cy="194.984" r="3.626"/>
	<g>
		<g>
			<path style="fill:none;stroke:#000000;stroke-width:0.5;stroke-linecap:round;stroke-miterlimit:10;" d="M538.862,429.131
				c0,0-13.455,14.602-30.042,14.592c-16.587-0.01-30.024-14.629-30.024-14.629s13.455-14.602,30.042-14.592
				C525.425,414.512,538.862,429.131,538.862,429.131z"/>
			<ellipse style="fill:#1A2732;" cx="508.829" cy="429.113" rx="12.175" ry="14.611"/>
		</g>
		<g>
			<path style="fill:none;stroke:#000000;stroke-width:0.5;stroke-linecap:round;stroke-miterlimit:10;" d="M578.229,399.088
				c0,0-13.455,14.602-30.042,14.592c-16.587-0.01-30.024-14.629-30.024-14.629s13.455-14.602,30.042-14.592
				C564.792,384.469,578.229,399.088,578.229,399.088z"/>
			<path style="fill:#1A2732;" d="M560.372,399.077c-0.005,8.069-5.46,14.607-12.185,14.603
				c-6.724-0.004-12.172-6.549-12.166-14.618c0.005-8.069,5.46-14.607,12.184-14.603
				C554.93,384.463,560.377,391.008,560.372,399.077z"/>
		</g>
	</g>
	<g>
		<polygon style="fill:#E3A81E;" points="238.231,148.054 320.635,147.118 276.492,201.751 257.689,171.476 249.219,182.057 
			248.747,160.043 		"/>
		<g>
			<defs>
				<polygon id="SVGID_1_" points="238.231,148.054 320.635,147.118 280.536,202.002 257.689,171.476 249.219,182.057 
					248.747,160.043 				"/>
			</defs>
			<clipPath id="SVGID_00000026164149741733241890000009545135522549169827_">
				<use xlink:href="#SVGID_1_"  style="overflow:visible;"/>
			</clipPath>
			<polygon style="clip-path:url(#SVGID_00000026164149741733241890000009545135522549169827_);fill:#70A1BD;" points="
				307.136,153.557 257.689,171.476 250.783,192.648 238.846,181.337 248.747,160.043 			"/>
		</g>
	</g>
	<g>
		<g>
			<path style="fill:#C13F4F;" d="M408.858,115.732c-15.995,0-29.007-13.013-29.007-29.007c0-15.994,13.013-29.007,29.007-29.007
				s29.007,13.013,29.007,29.007C437.866,102.719,424.853,115.732,408.858,115.732z M408.858,73.165
				c-7.477,0-13.56,6.083-13.56,13.56c0,7.478,6.083,13.56,13.56,13.56s13.56-6.083,13.56-13.56
				C422.419,79.248,416.335,73.165,408.858,73.165z"/>
		</g>
		<g>
			<path style="fill:#38668A;" d="M380.586,93.211c-0.487-2.124-0.734-4.307-0.734-6.487c0-15.994,13.013-29.007,29.007-29.007
				s29.007,13.013,29.007,29.007h-15.447c0-7.35-6.21-13.56-13.56-13.56s-13.56,6.21-13.56,13.56c0,1.019,0.116,2.04,0.343,3.033
				L380.586,93.211z"/>
		</g>
		<g>
			<path style="fill:#FFFFFF;" d="M437.866,86.725h-15.447c0-7.35-6.21-13.56-13.56-13.56c-2.832,0-5.548,0.867-7.856,2.507
				l-8.949-12.59c4.937-3.509,10.748-5.364,16.805-5.364C424.853,57.718,437.866,70.73,437.866,86.725z"/>
		</g>
	</g>
	<g>
		<g>
			
				<line style="fill:none;stroke:#C13F4F;stroke-width:3;stroke-miterlimit:10;" x1="296.106" y1="73.287" x2="267.491" y2="101.901"/>
			<path style="fill:none;stroke:#C13F4F;stroke-width:3;stroke-miterlimit:10;" d="M268.744,75.875
				c-2.361,3.167-2.474,7.477-0.252,9.627c2.222,2.15,5.938,1.325,8.299-1.842s2.474-7.477,0.252-9.626
				C274.821,71.883,271.105,72.708,268.744,75.875z"/>
			<path style="fill:none;stroke:#C13F4F;stroke-width:3;stroke-miterlimit:10;" d="M284.84,91.971
				c-2.361,3.167-2.474,7.477-0.252,9.627c2.222,2.15,5.938,1.325,8.299-1.842c2.361-3.167,2.474-7.477,0.252-9.627
				C290.917,87.979,287.201,88.804,284.84,91.971z"/>
		</g>
		<g>
			
				<line style="fill:none;stroke:#C13F4F;stroke-width:3;stroke-miterlimit:10;" x1="333.751" y1="73.287" x2="305.136" y2="101.901"/>
			<path style="fill:none;stroke:#C13F4F;stroke-width:3;stroke-miterlimit:10;" d="M306.389,75.875
				c-2.361,3.167-2.474,7.477-0.252,9.627c2.222,2.15,5.938,1.325,8.299-1.842c2.361-3.167,2.474-7.477,0.252-9.626
				C312.466,71.883,308.75,72.708,306.389,75.875z"/>
			<path style="fill:none;stroke:#C13F4F;stroke-width:3;stroke-miterlimit:10;" d="M322.484,91.971
				c-2.361,3.167-2.474,7.477-0.252,9.627c2.222,2.15,5.938,1.325,8.299-1.842c2.361-3.167,2.474-7.477,0.252-9.627
				C328.561,87.979,324.846,88.804,322.484,91.971z"/>
		</g>
	</g>
	<g>
		<g>
			<path style="fill:none;stroke:#C13F4F;stroke-miterlimit:10;" d="M240.239,181.854c-0.716,0.693-1.433,1.391-2.148,2.095"/>
			<path style="fill:none;stroke:#C13F4F;stroke-miterlimit:10;stroke-dasharray:6.0447,6.0447;" d="M233.836,188.241
				c-8.071,8.394-15.303,17.665-18.189,28.807c-3.636,14.039,2.414,31.636,16.301,35.815c6.137,1.847,13.52,0.506,17.571-4.46
				c4.05-4.967,3.252-13.591-2.351-16.702c-6.949-3.859-15.596,2.375-18.872,9.617c-21.151,46.753,46.59,63.929,81.835,60.895"/>
			<path style="fill:none;stroke:#C13F4F;stroke-miterlimit:10;" d="M313.134,301.895c1.023-0.13,2.012-0.278,2.963-0.445"/>
		</g>
	</g>
	<g>
		<defs>
			<rect id="SVGID_00000067234456594569098390000009189431172252368038_" width="649.664" height="500"/>
		</defs>
		<clipPath id="SVGID_00000133493598233600957190000002956551061795173274_">
			<use xlink:href="#SVGID_00000067234456594569098390000009189431172252368038_"  style="overflow:visible;"/>
		</clipPath>
		<g style="clip-path:url(#SVGID_00000133493598233600957190000002956551061795173274_);">
			<path style="fill:#DB7F7B;" d="M62.059,382.042c-0.772,0.884-1.512,1.795-2.209,2.742c-1.868,2.541-3.442,5.433-3.691,8.576
				c-0.044,0.56-0.037,1.158,0.253,1.639c0.675,1.118,2.326,0.949,3.586,0.605c3.86-1.056,8.975-2.216,12.286-4.543
				c3.035-2.132,4.578-6.438,5.446-9.864c1.101-4.345,2.322-7.926,4.187-12.111c0.233-0.523,0.47-1.086,0.371-1.65
				c-0.179-1.016-1.417-1.548-2.428-1.342c-1.011,0.206-1.828,0.925-2.594,1.616c-2.348,2.119-4.696,4.238-7.044,6.357
				C67.398,376.617,64.558,379.184,62.059,382.042z"/>
			<g>
				<path style="fill:#1B2258;" d="M63.718,345.17L63.718,345.17c-4.992,0.475-9.424-3.188-9.899-8.18l-0.528-5.554
					c-0.475-4.992,3.188-9.424,8.18-9.899l0,0c4.992-0.475,9.424,3.188,9.899,8.18l0.528,5.554
					C72.373,340.264,68.71,344.696,63.718,345.17z"/>
				<path style="fill:#1B2258;" d="M77.212,397.589c-0.13,2.167-0.765,6.163-1.609,9.407c-0.424,1.628,0.38,3.495,1.673,3.785
					c4.54,1.018,10.327-1.275,11.002-4.439c6.185-16.794,4.27-37.362,1.161-52.184c-0.884-4.216-4.808-6.803-6.586-10.392
					c-1.803-3.64-2.497-7.903-6.194-9.323c-1.773-0.681-3.632-0.416-5.239,0.603c-1.415,0.897-3.554,1.841-4.23,4.138
					c-0.491,1.666-0.304,3.734,0.374,5.372C78.98,372.156,77.753,388.567,77.212,397.589z"/>
				<path style="fill:#E3A81E;" d="M202.679,379.68c-40.81-12.34-82.335-20.677-124.523-25.295l-4.012-42.201
					c39.544-11.605,78.698-27.968,117.525-48.307L202.679,379.68z"/>
				<path style="fill:#C13F4F;" d="M180.719,323.695c3.04,31.978,12.987,57.191,22.216,56.313
					c9.229-0.877,14.247-27.512,11.206-59.491c-3.04-31.978-12.987-57.191-22.216-56.313
					C182.696,265.082,177.679,291.717,180.719,323.695z"/>
				<path style="fill:#38668A;" d="M90.098,356.939l-1.737,0.165c-13.674,1.3-25.812-8.731-27.112-22.404v0
					c-1.3-13.673,8.731-25.812,22.404-27.112l1.736-0.165L90.098,356.939z"/>
				<g>
					<defs>
						<path id="SVGID_00000110438348325875639970000006183334907681243520_" d="M180.719,323.695
							c3.04,31.978,12.987,57.191,22.216,56.313c9.229-0.877,14.247-27.512,11.206-59.491c-3.04-31.978-12.987-57.191-22.216-56.313
							C182.696,265.082,177.679,291.717,180.719,323.695z"/>
					</defs>
					<clipPath id="SVGID_00000011017960463760447250000002263232762007411876_">
						<use xlink:href="#SVGID_00000110438348325875639970000006183334907681243520_"  style="overflow:visible;"/>
					</clipPath>
					<path style="clip-path:url(#SVGID_00000011017960463760447250000002263232762007411876_);fill:#1B2258;" d="M202.815,321.86
						c0.931,9.789-5.873,18.443-15.195,19.329c-9.323,0.886-17.635-6.331-18.566-16.12c-0.931-9.789,5.873-18.443,15.195-19.329
						C193.572,304.854,201.884,312.071,202.815,321.86z"/>
				</g>
				<path style="fill:none;stroke:#FFFFFF;stroke-width:2;stroke-miterlimit:10;" d="M180.719,323.695
					c3.04,31.978,12.987,57.191,22.216,56.313c9.229-0.877,14.247-27.512,11.206-59.491c-3.04-31.978-12.987-57.191-22.216-56.313
					C182.696,265.082,177.679,291.717,180.719,323.695z"/>
				<g>
					<defs>
						<path id="SVGID_00000145749609977972361900000013954946145466183355_" d="M202.679,379.68
							c-40.81-12.34-82.335-20.677-124.523-25.295l-4.012-42.201c39.544-11.605,78.698-27.968,117.525-48.307L202.679,379.68z"/>
					</defs>
					<clipPath id="SVGID_00000047759124054625281990000016039984158804230275_">
						<use xlink:href="#SVGID_00000145749609977972361900000013954946145466183355_"  style="overflow:visible;"/>
					</clipPath>
					
						<path style="clip-path:url(#SVGID_00000047759124054625281990000016039984158804230275_);fill:none;stroke:#1B2258;stroke-miterlimit:10;" d="
						M177.603,270.851c-9.377,0.892-14.752,25.04-12.004,53.936c2.747,28.897,12.576,51.6,21.953,50.708"/>
				</g>
			</g>
			<path style="fill:#DB7F7B;" d="M108.673,402.681c-0.646-1.91-3.176-3.11-4.837-1.968c2.079-1.162,3.998-3.056,4.184-5.431
				c0.186-2.374-2.216-4.867-4.445-4.028c2.681-0.896,4.165-4.334,2.979-6.9c-1.186-2.566-4.766-3.663-7.186-2.202
				c2.415-2.166,5.902-5.621,3.464-9.087c-2.283-3.245-7.718-0.922-10.601,0.351c-5.737,2.534-11.475,5.069-17.212,7.603
				c-3.733,1.649-7.478,3.305-10.954,5.441c-2.348,1.444-4.567,3.103-7.002,4.394c-3.462,1.835-7.276,2.883-11.055,3.917
				c-10.976,3.003-22.277,7.268-33.487,9.173c-9.424,1.602-18.904,0.284-27.483,5.79c-6.746,4.33-11.424,12.582-9.661,20.401
				c0.663,2.939,2.151,5.616,3.621,8.246c1.734,3.102,3.543,6.293,6.36,8.46c4.929,3.792,11.775,3.634,17.938,2.806
				c20.373-2.736,37.871-12.037,56.268-20.493c4.115-1.892,8.23-3.784,12.345-5.675c3.234-1.487,6.495-2.983,9.961-3.794
				c2.775-0.649,5.646-0.85,8.393-1.611c4.571-1.265,8.352-3.925,12.046-6.739C104.827,409.421,110.022,406.67,108.673,402.681z"/>
			<path style="fill:none;stroke:#171616;stroke-width:0.75;stroke-linecap:round;stroke-miterlimit:10;" d="M100.377,381.815
				c-0.903,0.387-7.539,2.841-8.442,3.228"/>
			<path style="fill:none;stroke:#171616;stroke-width:0.75;stroke-linecap:round;stroke-miterlimit:10;" d="M103.576,391.255
				c-1.678,0.773-5.742,1.954-7.42,2.727"/>
			<path style="fill:none;stroke:#171616;stroke-width:0.75;stroke-linecap:round;stroke-miterlimit:10;" d="M104.847,400.189
				c-1.032,0.387-4.43,1.599-5.462,1.986"/>
		</g>
	</g>
</g>
</svg>
